<svg xmlns="http://www.w3.org/2000/svg" viewBox="0 0 512 512" role="img" aria-label="Batida do Sado logo">
  <defs>
    <linearGradient id="bg" x1="0" y1="0" x2="1" y2="1">
      <stop offset="0%" stop-color="#071a2c"/>
      <stop offset="55%" stop-color="#0f3b5c"/>
      <stop offset="100%" stop-color="#16a3b7"/>
    </linearGradient>
    <linearGradient id="sun" x1="0" y1="0" x2="0" y2="1">
      <stop offset="0%" stop-color="#ffce70"/>
      <stop offset="100%" stop-color="#ff7b54"/>
    </linearGradient>
  </defs>
  <rect width="512" height="512" rx="110" fill="url(#bg)"/>
  <circle cx="256" cy="205" r="92" fill="url(#sun)" opacity="0.95"/>
  <path d="M96 292c40-24 72-35 118-35 56 0 97 20 137 20 28 0 48-6 65-15-13 58-53 107-107 135-20 10-41 17-63 21-71 11-146-19-193-77 10-22 23-38 43-49Z" fill="#08324b" opacity="0.78"/>
  <path d="M72 326c38-24 80-37 126-37 63 0 101 21 145 21 35 0 66-10 97-29" fill="none" stroke="#d8f5ff" stroke-width="16" stroke-linecap="round" opacity="0.95"/>
  <path d="M86 365c36-17 71-24 108-24 48 0 87 14 126 14 29 0 58-6 95-22" fill="none" stroke="#83e8ff" stroke-width="12" stroke-linecap="round" opacity="0.92"/>
  <circle cx="352" cy="178" r="78" fill="#101418" stroke="#dbe7ee" stroke-width="10"/>
  <circle cx="352" cy="178" r="46" fill="none" stroke="#3b4c57" stroke-width="8"/>
  <circle cx="352" cy="178" r="12" fill="#dbe7ee"/>
  <rect x="316" y="112" width="14" height="110" rx="7" fill="#dbe7ee" transform="rotate(-28 323 167)"/>
  <circle cx="307" cy="102" r="16" fill="#ffce70"/>
  <path d="M116 168c20-28 41-46 64-54 25-9 50-7 74 8" fill="none" stroke="#d8f5ff" stroke-width="14" stroke-linecap="round"/>
  <path d="M140 196c17-19 34-30 51-35 18-5 35-3 51 8" fill="none" stroke="#83e8ff" stroke-width="10" stroke-linecap="round"/>
  <text x="256" y="455" text-anchor="middle" font-family="Arial, Helvetica, sans-serif" font-size="54" font-weight="700" fill="#f4fbff" letter-spacing="2">BATIDA DO SADO</text>
</svg>